# xmcd
#
# Track frame offsets: 
#        182
#        12740
#        26087
#        39460
#        51152
#        63352
#        77380
#        87672
#        99915
#        114955
#        126440
#        141180
#        153742
#        165262
#        177997
#        202547
#        219815
#        235792
#
# Disc length: 3334 seconds
#
# Revision: 8
# Processed by: cddbd v1.5.2PL0 Copyright (c) Steve Scherf et al.
# Submitted via: ExactAudioCopy v1.0b6
#
DISCID=e40d0412
DTITLE=The R&B Box - The R&B Box: 30 Years of Rhythm and Blues The End O
DTITLE=f The Golden Age 1966-1972] Disc 6
DYEAR=1994
DGENRE=Rhythm and Blues
TTITLE0=The Isley Brothers - This Old Heart of Mine (Is Weak for You 1
TTITLE0=966)
TTITLE1=Wilson Pickett - 634-5789 (1966)
TTITLE2=Percy Sledge - When a Man Loves a Woman (1966)
TTITLE3=The Temptations - Ain't Too Proud to Beg (1966)
TTITLE4=Billy Stewart - Summertime (1966)
TTITLE5=Eddie Floyd - Knock on Wood (1966)
TTITLE6=Lou Rawls - Love is a Hurtin' Thing (1966)
TTITLE7=Aaron Neville - Tell it Like it Is (1966)
TTITLE8=Otis Redding - Try a Little Tenderness (1966)
TTITLE9=James Carr - The Dark End of the Street (1967)
TTITLE10=Aretha Franklin - Do Right Woman - Do Right Man (1967)
TTITLE11=Sam and Dave - I Thank You (1967)
TTITLE12=Clarence Carter - Slip Away (1968)
TTITLE13=Johnnie Taylor - Who's Making Love (1968)
TTITLE14=B.B. King - The Thrill is Gone (1969)
TTITLE15=Brook Benton - Rainy Night in Georgia (1969)
TTITLE16=Ike and Tina Turner - Proud Mary (1971)
TTITLE17=The Spinners - I'll Be Around (1971)
EXTD=YEAR: 1994
EXTT0=
EXTT1=
EXTT2=
EXTT3=
EXTT4=
EXTT5=
EXTT6=
EXTT7=
EXTT8=
EXTT9=
EXTT10=
EXTT11=
EXTT12=
EXTT13=
EXTT14=
EXTT15=
EXTT16=
EXTT17=
PLAYORDER=
